<?xml version="1.0" encoding="UTF-8" standalone="no"?>
<!DOCTYPE svg PUBLIC "-//W3C//DTD SVG 1.1//EN" "http://www.w3.org/Graphics/SVG/1.1/DTD/svg11.dtd">
<svg version="1.1" xmlns="http://www.w3.org/2000/svg" xmlns:xlink="http://www.w3.org/1999/xlink" preserveAspectRatio="xMidYMid meet" viewBox="0 0 640 640" width="640" height="640"><defs><path d="M173.45 549.43C148.92 536.95 110.13 511.53 110.13 507.96C110.13 507.07 123.95 513.31 140.45 521.79C274.67 592.24 448.12 514.65 482.01 368.84C482.43 367 484.51 357.78 488.25 341.2L390.6 341.2L292.95 341.2L292.95 296.61L292.95 252.02L432.96 252.02L572.98 252.02C574.58 260.31 575.47 264.92 575.65 265.84C583.68 306.42 571.64 369.73 546.67 421.46C521.7 472.29 470.86 524.02 421.82 548.1C362.96 577.08 291.61 584.66 228.29 569.05C211.35 565.04 186.38 556.12 173.45 549.43Z" id="a2qkPIl5Kf"></path><path d="M146.69 514.65C67.32 474.52 19.61 397.83 19.17 309.98C19.17 260.93 29.87 224.37 56.62 183.35C100.32 116.91 170.33 78.12 248.36 78.12C300.08 78.12 355.82 95.95 386.59 122.26C387.33 122.91 391.05 126.18 397.74 132.07C387.03 126.99 381.09 124.16 379.9 123.6C286.26 78.56 169.88 118.69 124.4 212.33C61.97 340.31 153.83 488.79 294.73 488.34C358.05 488.34 423.6 454.01 453.92 405.41C468.63 381.77 469.53 390.69 455.26 417.89C437.42 450.89 390.16 497.71 357.61 513.76C308.11 538.73 259.95 545.87 206 536.95C193.96 535.16 167.21 524.91 146.69 514.65Z" id="a69nl87Q3O"></path><path d="M88.28 107.54C118.16 74.55 165.42 43.78 207.34 29.96C252.37 14.8 333.53 13.01 375.44 26.39C415.13 39.32 455.7 62.95 487.36 92.38C511.44 115.13 542.65 155.7 542.65 164.17C542.65 165.96 521.25 167.3 494.94 167.3C491.79 167.3 476.04 167.3 447.68 167.3C430.02 150.17 420.21 140.66 418.25 138.76C366.08 88.82 307.22 66.52 237.21 70.54C156.5 74.99 83.82 118.69 42.8 187.36C35.22 199.85 30.76 204.75 32.1 198.51C37.89 177.11 65.54 132.07 88.28 107.54Z" id="c2yo1OGclv"></path></defs><g><g><g><use xlink:href="#a2qkPIl5Kf" opacity="1" fill="#fff" fill-opacity="1"></use><g><use xlink:href="#a2qkPIl5Kf" opacity="1" fill-opacity="0" stroke="#fff" stroke-width="1" stroke-opacity="0"></use></g></g><g><use xlink:href="#a69nl87Q3O" opacity="1" fill="#fff" fill-opacity="1"></use><g><use xlink:href="#a69nl87Q3O" opacity="1" fill-opacity="0" stroke="#fff" stroke-width="1" stroke-opacity="0"></use></g></g><g><use xlink:href="#c2yo1OGclv" opacity="1" fill="#fff" fill-opacity="1"></use><g><use xlink:href="#c2yo1OGclv" opacity="1" fill-opacity="0" stroke="#fff" stroke-width="1" stroke-opacity="0"></use></g></g></g></g></svg>