<!DOCTYPE svg PUBLIC "-//W3C//DTD SVG 20010904//EN" "http://www.w3.org/TR/2001/REC-SVG-20010904/DTD/svg10.dtd">
<svg version="1.0" xmlns="http://www.w3.org/2000/svg" width="164px" height="165px" viewBox="0 0 1640 1650" preserveAspectRatio="xMidYMid meet">
<g id="layer101" fill="#080808" stroke="none">
 <path d="M655 1411 c-38 -9 -94 -29 -123 -44 -55 -28 -142 -85 -142 -93 0 -2 31 12 68 31 301 158 690 -16 766 -343 l14 -62 -219 0 -219 0 0 -100 0 -100 314 0 314 0 6 31 c18 91 -9 233 -65 349 -56 114 -170 230 -280 284 -132 65 -292 82 -434 47z"/>
 <path d="M605 1339 c-27 -4 -87 -27 -133 -50 -178 -90 -285 -262 -286 -459 0 -110 24 -192 84 -284 98 -149 255 -236 430 -236 116 0 241 40 310 99 l25 22 -40 -19 c-210 -101 -471 -11 -573 199 -140 287 66 620 382 619 142 0 289 -77 357 -186 33 -53 35 -33 3 28 -40 74 -146 179 -219 215 -111 56 -219 72 -340 52z"/>
 <path d="M215 580 c13 -48 75 -149 126 -204 67 -74 173 -143 267 -174 101 -34 283 -38 377 -8 89 29 180 82 251 148 54 51 124 142 124 161 0 4 -48 7 -107 7 l-106 0 -66 -64 c-117 -112 -249 -162 -406 -153 -181 10 -344 108 -436 262 -17 28 -27 39 -24 25z"/>
 </g>
<g id="layer102" fill="#333333" stroke="none">
 <path d="M763 1423 c26 -2 67 -2 90 0 23 2 2 3 -48 3 -49 0 -68 -1 -42 -3z"/>
 <path d="M688 1407 c9 -4 -1 -5 -23 -2 -31 4 -36 3 -25 -5 12 -9 8 -10 -15 -6 -18 3 -40 -1 -55 -10 -22 -13 -22 -14 -3 -9 12 3 24 1 28 -5 3 -5 -2 -10 -12 -10 -10 0 -29 -3 -43 -6 -20 -4 -22 -3 -10 5 8 6 11 11 5 11 -19 -1 -47 -28 -36 -35 6 -3 16 -3 22 0 6 4 43 13 82 20 40 7 59 14 42 14 -16 1 -37 6 -45 12 -11 8 -9 8 10 3 14 -5 63 -8 110 -8 51 0 71 -2 50 -6 -35 -6 -35 -6 15 -13 28 -3 61 -9 75 -12 22 -5 22 -4 5 4 -14 7 -15 10 -5 10 8 0 22 -4 30 -9 8 -5 11 -10 5 -10 -5 0 18 -16 53 -34 35 -19 70 -40 78 -47 8 -6 17 -9 21 -5 11 11 82 -65 76 -81 -3 -8 0 -13 7 -11 7 2 14 -5 15 -16 2 -10 9 -24 15 -30 8 -8 9 -6 5 9 -5 16 -5 17 3 5 6 -8 9 -17 6 -22 -3 -4 4 -25 16 -47 11 -22 26 -68 34 -101 l14 -60 -219 0 -219 0 0 -100 0 -100 314 0 314 0 6 31 c17 85 -8 231 -58 336 -19 40 -38 73 -41 73 -3 0 -3 -4 0 -10 3 -5 4 -10 1 -10 -3 0 -10 10 -17 21 -9 17 -8 20 2 13 25 -15 -29 52 -84 103 -67 63 -133 106 -207 134 -46 18 -79 21 -207 23 -84 0 -145 -2 -135 -7z m412 -57 c22 -11 40 -23 40 -25 0 -5 -79 32 -89 41 -11 10 14 2 49 -16z m-123 -40 c28 -16 55 -35 59 -42 6 -11 5 -11 -8 0 -8 7 -40 26 -69 42 -30 16 -49 30 -44 30 6 0 33 -14 62 -30z m-160 -557 c-2 -27 -3 -5 -3 47 0 52 1 74 3 48 2 -27 2 -69 0 -95z m316 130 c-57 -2 -149 -2 -205 0 -57 1 -11 3 102 3 113 0 159 -2 103 -3z m294 -115 c-2 -18 -4 -4 -4 32 0 36 2 50 4 33 2 -18 2 -48 0 -65z m-160 -55 c-81 -2 -213 -2 -295 0 -81 1 -14 3 148 3 162 0 229 -2 147 -3z"/>
 <path d="M609 1340 c-25 -4 -66 -17 -90 -29 -24 -12 -36 -19 -26 -16 10 3 16 1 13 -4 -3 -5 -15 -11 -26 -14 -11 -3 -18 -1 -14 4 11 19 -8 8 -33 -18 -15 -16 -23 -22 -19 -15 15 25 -7 10 -65 -44 -32 -31 -56 -60 -54 -65 5 -8 -33 -79 -42 -79 -3 0 4 16 16 36 12 19 16 32 11 29 -11 -7 -60 -99 -60 -112 1 -4 7 3 16 17 l15 25 -7 -24 c-11 -42 -33 -87 -34 -71 -1 10 -4 9 -10 -5 -5 -11 -7 -56 -5 -100 2 -59 1 -69 -5 -40 -6 33 -7 29 -4 -22 5 -70 35 -178 59 -208 9 -13 7 -2 -6 28 -11 27 -19 50 -17 52 2 2 16 -23 30 -56 15 -32 21 -57 15 -53 -7 3 0 -4 15 -16 18 -14 25 -27 21 -37 -4 -10 -2 -14 4 -10 6 4 30 -14 54 -40 23 -27 39 -41 34 -33 -5 9 -5 12 1 7 5 -5 9 -14 9 -20 0 -5 6 -12 14 -15 9 -3 11 0 6 8 -5 9 -4 11 4 6 6 -4 8 -12 5 -18 -5 -8 -1 -9 10 -5 11 5 15 3 10 -5 -5 -8 -2 -9 10 -5 11 5 15 3 10 -5 -5 -8 -2 -9 10 -5 9 4 15 3 12 -2 -3 -5 1 -12 10 -15 24 -9 31 -7 14 5 -12 9 -12 10 3 5 10 -3 24 -6 30 -6 8 0 7 -3 -1 -9 -23 -14 69 -31 160 -30 62 1 74 3 48 9 -27 5 -20 7 30 6 53 -1 77 5 130 30 36 17 76 41 90 53 l25 21 -27 -11 c-16 -7 -28 -16 -28 -21 0 -5 -4 -6 -10 -3 -5 3 -10 3 -10 -2 0 -4 -10 -9 -22 -10 -13 0 -57 -4 -98 -8 -56 -6 -91 -3 -138 9 -35 9 -69 13 -74 9 -7 -4 -8 -1 -3 7 6 10 4 12 -9 7 -10 -4 -15 -3 -11 3 3 5 -5 14 -17 21 -42 22 -107 81 -129 115 -11 19 -26 31 -31 28 -7 -4 -8 -2 -4 4 4 6 -3 32 -14 58 -12 26 -25 72 -28 103 l-7 56 -6 -40 c-4 -28 -6 -15 -6 45 0 61 2 75 7 50 l7 -35 4 40 c2 22 3 52 2 67 -1 16 2 26 6 24 3 -2 20 22 38 55 18 34 24 54 15 47 -9 -7 19 22 62 65 43 42 81 77 84 77 4 0 -4 -10 -18 -21 -22 -18 -20 -18 17 3 23 12 39 27 36 32 -4 5 -1 6 5 2 6 -4 37 1 68 10 56 16 166 16 234 0 21 -6 22 -5 5 3 -14 7 -15 10 -5 10 17 1 51 -18 35 -19 -5 -1 10 -12 35 -24 44 -24 162 -120 155 -128 -2 -2 5 -14 15 -28 32 -41 22 -8 -16 56 -40 67 -123 156 -139 150 -6 -2 -22 5 -36 16 l-24 20 30 -16 30 -17 -24 21 c-13 11 -31 18 -38 16 -9 -4 -11 -1 -7 6 5 8 2 9 -10 5 -9 -4 -15 -3 -12 2 7 11 -43 33 -63 27 -9 -3 -32 -1 -51 3 -30 8 -31 9 -10 11 24 2 23 3 -5 10 -39 10 -127 10 -186 0z m129 -7 c-15 -2 -42 -2 -60 0 -18 2 -6 4 27 4 33 0 48 -2 33 -4z m-173 -23 c-11 -5 -27 -9 -35 -9 -9 0 -8 4 5 9 11 5 27 9 35 9 9 0 8 -4 -5 -9z m273 -67 c-15 -2 -42 -2 -60 0 -18 2 -6 4 27 4 33 0 48 -2 33 -4z m-476 -46 c-23 -24 -40 -46 -37 -48 3 -3 -2 -6 -10 -6 -10 0 2 19 32 49 26 26 49 48 52 48 3 0 -14 -19 -37 -43z m742 -59 c-3 -4 -1 -8 4 -8 5 0 18 -12 28 -27 13 -22 6 -18 -32 16 -46 42 -78 73 -52 51 30 -25 28 -6 -2 28 -28 30 -26 28 12 -7 26 -24 45 -48 42 -53z m-574 9 c0 -2 -17 -19 -37 -38 l-38 -34 34 38 c33 34 41 42 41 34z m-117 -152 c-9 -19 -18 -33 -21 -31 -4 5 26 66 33 66 3 0 -3 -16 -12 -35z m87 -510 c19 -19 32 -35 29 -35 -3 0 -20 16 -39 35 -19 19 -32 35 -29 35 3 0 20 -16 39 -35z m417 -121 c-15 -8 -33 -11 -40 -7 -8 5 -1 10 18 14 48 10 52 9 22 -7z m-59 -13 c8 -5 -8 -6 -40 -4 -73 6 -83 11 -23 12 28 0 56 -3 63 -8z m-200 -28 c-10 -2 -26 -2 -35 0 -10 3 -2 5 17 5 19 0 27 -2 18 -5z"/>
 <path d="M464 1325 c-4 -8 -9 -13 -13 -11 -4 3 -20 -6 -37 -20 l-29 -25 43 21 c23 11 42 25 42 31 0 6 5 7 12 3 7 -4 8 -3 4 4 -10 16 -15 15 -22 -3z"/>
 <path d="M1080 1215 c19 -19 36 -35 39 -35 3 0 -10 16 -29 35 -19 19 -36 35 -39 35 -3 0 10 -16 29 -35z"/>
 <path d="M216 580 c11 -43 44 -100 55 -97 7 1 14 -4 17 -12 3 -9 0 -11 -8 -6 -9 6 -9 2 1 -16 22 -42 142 -154 204 -191 60 -36 127 -62 95 -38 -13 10 -12 11 3 6 11 -3 30 -9 44 -12 19 -5 22 -9 11 -16 -8 -5 2 -7 27 -3 26 3 33 2 21 -3 -12 -5 23 -8 90 -7 106 2 107 2 29 -5 -77 -7 -76 -7 25 -4 106 3 185 18 175 33 -3 5 2 12 11 15 24 9 31 7 14 -4 -11 -7 -11 -10 -2 -10 15 0 72 28 72 36 0 2 -9 0 -21 -6 -11 -7 -23 -10 -25 -8 -2 3 12 12 32 21 19 10 32 12 29 6 -4 -6 8 -3 26 7 50 25 192 171 186 189 -4 8 -1 17 5 21 7 5 8 2 4 -7 -4 -8 0 -5 8 5 9 11 16 23 16 28 0 4 -48 8 -106 8 l-107 0 -71 -67 c-39 -38 -95 -79 -123 -92 -29 -13 -49 -29 -46 -34 3 -6 1 -7 -5 -3 -6 4 -23 4 -37 0 -20 -5 -23 -9 -13 -15 16 -10 15 -11 -144 -13 -65 0 -110 2 -100 7 9 4 -1 5 -23 2 -22 -3 -35 -2 -28 2 8 6 -6 15 -40 27 -72 26 -142 72 -209 140 -31 31 -57 59 -57 62 0 2 -10 21 -21 42 -14 25 -18 29 -14 12z m1034 -87 l-105 -4 -60 -57 -60 -57 60 63 59 62 106 -2 105 -2 -105 -3z m-845 -127 c6 -4 1 -4 -10 2 -11 6 -29 21 -40 34 -19 22 -19 22 10 -2 17 -14 35 -29 40 -34z m5 -43 c0 -8 -9 0 -50 45 l-45 47 48 -45 c26 -24 47 -45 47 -47z m333 -50 c-18 -2 -48 -2 -65 0 -18 2 -4 4 32 4 36 0 50 -2 33 -4z"/>
 <path d="M310 487 c0 -2 15 -16 33 -33 l32 -29 -29 33 c-28 30 -36 37 -36 29z"/>
 </g>

</svg>