<?xml version="1.0" encoding="utf-8"?>
<!-- Svg Vector Icons : http://www.onlinewebfonts.com/icon -->
<!DOCTYPE svg PUBLIC "-//W3C//DTD SVG 1.1//EN" "http://www.w3.org/Graphics/SVG/1.1/DTD/svg11.dtd">
<svg version="1.1" xmlns="http://www.w3.org/2000/svg" xmlns:xlink="http://www.w3.org/1999/xlink" x="0px" y="0px" viewBox="0 0 1000 1000" enable-background="new 0 0 1000 1000" xml:space="preserve">
<metadata> Svg Vector Icons : http://www.onlinewebfonts.com/icon </metadata>
<g><g transform="translate(0.000000,511.000000) scale(0.100000,-0.100000)"><path d="M4319.6,4998.3C3079.2,4869.6,1920.5,4309.7,1366.7,3572c-153.3-204.4-367.8-625.3-457.7-897.1c-110.4-337.2-134.9-506.8-132.8-946.1c0-353.5,6.1-429.1,57.2-664.1c104.2-500.7,277.9-950.2,564-1461.1c233-414.8,696.8-1350.8,754.1-1522.4c40.9-118.5,51.1-196.2,59.2-443.5c14.3-472-51.1-715.2-429.1-1628.7c-251.3-600.8-257.5-635.5-139-741.8l61.3-57.2h2141.6c2084.4,0,2141.6,2,2204.9,40.9c73.6,44.9,81.7,73.6,94,367.8c12.3,273.8,89.9,443.4,245.2,523.1c85.8,44.9,235,65.4,629.4,89.9c410.8,22.5,629.4,59.3,784.7,130.8c124.6,55.2,280,190,349.4,302.4c124.7,196.2,175.8,533.3,132.8,860.3l-24.5,181.9l92,79.7c118.5,104.2,151.2,202.3,114.4,335.1l-26.6,92l96,87.9c116.5,110.4,118.5,143,18.4,353.5c-51.1,108.3-75.6,188-75.6,251.3l-2,94l112.4,26.5c61.3,14.3,169.6,40.9,239.1,59.3c243.2,59.3,394.4,198.2,394.4,363.8c0,153.3-159.4,425-555.8,948.2C8543.5,561.9,8412.7,756,8380,827.6l-61.3,130.8l26.6,322.9c26.6,343.3,20.4,463.9-42.9,774.5c-34.7,173.7-116.5,482.3-153.3,584.4c-14.3,36.8-14.3,36.8,24.5,4.1c143-126.7,337.2-73.6,382.1,102.2c26.6,108.3-169.6,613.1-335.1,856.2c-263.6,388.3-647.8,666.2-1103.5,794.9c-106.3,30.6-228.9,77.6-273.8,106.3C6530.6,4700,5938,4890,5392.4,4969.7C5134.9,5006.5,4548.4,5022.9,4319.6,4998.3z M4816.1,4274.9c63.4-14.3,153.3-51.1,198.2-81.7c94-61.3,198.2-230.9,216.6-351.5c12.3-79.7,16.3-85.8,153.3-147.1c85.8-38.8,145.1-53.1,153.3-40.9c8.2,10.2,55.2,47,106.3,79.7c177.8,112.4,437.3,67.4,668.2-120.6c155.3-124.7,404.6-431.2,435.3-533.4c42.9-139,30.7-269.7-36.8-404.6c-34.7-69.5-75.6-134.9-89.9-149.2c-24.5-18.4-22.5-40.9,14.3-141l42.9-120.6l112.4-12.3c177.8-20.4,275.9-75.6,357.6-200.3c110.3-165.5,143-322.9,128.7-629.4c-12.3-292.2-47-427.1-136.9-535.4c-73.6-89.9-241.1-175.7-365.8-185.9c-87.9-8.2-89.9-10.2-136.9-126.7l-49.1-118.5l61.3-75.6c194.1-245.2,155.3-517-120.6-819.4c-145.1-163.5-408.7-357.6-519-388.3c-141-36.8-316.7,8.2-484.3,126.7c-22.5,16.3-65.4,6.1-167.6-40.9c-134.9-61.3-138.9-65.4-138.9-141c-2-235-212.5-406.7-570.1-457.7c-218.7-32.7-594.7,16.4-727.5,94c-108.3,65.4-204.3,206.4-237,349.5c-24.5,108.3-24.5,108.3-151.2,163.5l-128.7,53.1l-83.8-59.3c-45-32.7-124.7-71.5-175.8-85.8c-241.1-67.5-564,118.5-837.8,480.2C2167.8-161.5,2133-79.7,2133,46.9c0,106.3,73.6,290.2,147.1,367.8l40.9,42.9L2272,580.3l-47,122.6l-118.5,12.3c-224.8,22.5-333.1,114.4-425,357.6c-79.7,208.4-71.5,668.2,16.3,880.8c63.3,159.4,280,306.5,445.5,306.5c81.7,0,81.7,2,128.7,122.6l49.1,122.6l-63.3,79.7c-34.7,45-77.7,112.4-94,153.3c-96,228.9,57.2,559.9,388.3,831.7c210.5,175.7,314.7,226.8,457.7,226.8c122.6,0,280-53.1,353.5-118.5c30.7-30.6,47-28.6,175.7,22.5c139,55.2,141,55.2,143,134.9c8.2,169.6,157.4,347.4,359.7,425c83.8,32.7,157.4,40.9,380.1,40.9C4585.2,4303.6,4746.7,4291.3,4816.1,4274.9z"/><path d="M4166.3,3974.5c-42.9-10.2-102.2-38.8-126.7-63.3c-40.9-38.8-47-63.3-47-214.6c0-96-8.2-190-20.4-210.5c-10.2-20.4-67.4-53.1-126.7-73.6c-59.2-18.4-175.7-65.4-259.5-104.2c-81.7-36.8-167.6-67.4-190.1-67.4c-22.5,0-98.1,55.2-169.6,124.7c-155.3,147.1-206.4,157.3-351.5,63.3c-112.4-73.6-302.4-263.6-382.1-382.1c-81.7-126.7-71.5-177.8,67.4-322.9c65.4-69.5,126.7-147.1,132.8-171.7c10.2-28.6-6.1-83.8-45-163.5c-32.7-65.4-81.7-177.8-106.3-251.3c-26.6-73.6-61.3-145.1-77.6-157.4c-20.4-16.3-96-26.6-200.3-26.6c-198.2,0-259.5-34.7-298.4-169.6c-30.6-110.4-30.6-510.9,0-621.2c34.7-118.5,98.1-149.2,306.5-149.2c188,0,206.4-12.3,267.7-186c20.4-61.3,67.4-169.6,102.2-243.2c34.7-73.6,63.3-145.1,63.3-159.4c0-14.3-59.2-89.9-132.8-167.6C2415,89.9,2406.9,49,2509-100.2c136.9-204.3,416.9-439.4,519-439.4c28.6,0,98.1,49,188,132.8c79.7,75.6,159.4,132.8,183.9,132.8c22.5,0,94-26.6,159.4-59.3c63.4-30.7,167.6-73.6,228.9-94c171.7-53.1,204.4-100.1,204.4-302.5c2.1-255.4,40.9-284.1,396.4-296.3c282-10.2,445.5,16.4,492.5,83.8c20.4,30.7,30.7,94,30.7,210.5c0,190,34.7,259.5,145.1,282c34.7,6.1,141,49,237,94c96,44.9,194.1,81.7,214.6,81.7c22.5,0,96-55.2,165.5-120.6c159.4-153.3,212.5-167.6,327-94c157.4,104.2,259.5,198.2,361.7,335.1c143,190,138.9,235-22.5,404.6c-112.4,116.5-124.7,136.9-114.5,196.2c12.3,73.6,179.8,488.4,216.6,533.4c16.3,20.4,83.8,30.7,218.6,36.8c173.7,6.1,200.3,12.3,233,51.1c53.1,67.4,89.9,312.7,75.6,517c-22.5,320.8-65.4,367.8-339.2,367.8c-151.2,0-165.5,4.1-204.3,53.1c-24.5,30.7-42.9,67.4-42.9,81.7c0,16.3-36.8,112.4-81.7,216.6c-45,104.2-81.7,212.5-81.7,237c0,30.7,45,94,122.6,175.7c94,98.1,122.6,143,122.6,190c0,167.6-414.8,586.5-582.4,586.5c-57.2,0-94-22.5-202.3-126.7c-71.5-69.5-149.2-126.7-171.7-126.7c-20.4,0-106.3,30.7-190,69.5c-83.8,38.8-190,81.7-239.1,96c-136.9,40.9-167.6,94-167.6,296.3c0,204.3-22.5,237-181.9,271.8C4605.7,4001.1,4282.8,4001.1,4166.3,3974.5z M4736.5,2781.1c237-51.1,463.9-173.7,645.7-353.5c269.8-269.7,396.5-566.1,396.5-933.9c2-247.3-26.6-374-134.9-602.8c-69.5-143-112.4-204.3-259.5-347.4c-271.8-269.7-557.9-388.3-931.8-388.3c-224.8,0-378,36.8-594.6,143.1c-764.3,373.9-970.7,1377.3-416.9,2041.4C3747.4,2707.6,4258.3,2883.3,4736.5,2781.1z"/></g></g>
</svg>